<svg width="84" height="84" viewBox="0 0 84 84" fill="none" xmlns="http://www.w3.org/2000/svg">
<g filter="url(#filter0_d_6_26391)">
<circle cx="42" cy="38" r="32" fill="white"/>
<circle cx="42" cy="38" r="31.5" stroke="#F0F0F0"/>
</g>
<path d="M49 30H47V29C47 28.7348 46.8946 28.4804 46.7071 28.2929C46.5196 28.1054 46.2652 28 46 28C45.7348 28 45.4804 28.1054 45.2929 28.2929C45.1054 28.4804 45 28.7348 45 29V30H39V29C39 28.7348 38.8946 28.4804 38.7071 28.2929C38.5196 28.1054 38.2652 28 38 28C37.7348 28 37.4804 28.1054 37.2929 28.2929C37.1054 28.4804 37 28.7348 37 29V30H35C34.2044 30 33.4413 30.3161 32.8787 30.8787C32.3161 31.4413 32 32.2044 32 33V45C32 45.7956 32.3161 46.5587 32.8787 47.1213C33.4413 47.6839 34.2044 48 35 48H49C49.7956 48 50.5587 47.6839 51.1213 47.1213C51.6839 46.5587 52 45.7956 52 45V33C52 32.2044 51.6839 31.4413 51.1213 30.8787C50.5587 30.3161 49.7956 30 49 30ZM50 45C50 45.2652 49.8946 45.5196 49.7071 45.7071C49.5196 45.8946 49.2652 46 49 46H35C34.7348 46 34.4804 45.8946 34.2929 45.7071C34.1054 45.5196 34 45.2652 34 45V38H50V45ZM50 36H34V33C34 32.7348 34.1054 32.4804 34.2929 32.2929C34.4804 32.1054 34.7348 32 35 32H37V33C37 33.2652 37.1054 33.5196 37.2929 33.7071C37.4804 33.8946 37.7348 34 38 34C38.2652 34 38.5196 33.8946 38.7071 33.7071C38.8946 33.5196 39 33.2652 39 33V32H45V33C45 33.2652 45.1054 33.5196 45.2929 33.7071C45.4804 33.8946 45.7348 34 46 34C46.2652 34 46.5196 33.8946 46.7071 33.7071C46.8946 33.5196 47 33.2652 47 33V32H49C49.2652 32 49.5196 32.1054 49.7071 32.2929C49.8946 32.4804 50 32.7348 50 33V36Z" fill="black"/>
<defs>
<filter id="filter0_d_6_26391" x="0" y="0" width="84" height="84" filterUnits="userSpaceOnUse" color-interpolation-filters="sRGB">
<feFlood flood-opacity="0" result="BackgroundImageFix"/>
<feColorMatrix in="SourceAlpha" type="matrix" values="0 0 0 0 0 0 0 0 0 0 0 0 0 0 0 0 0 0 127 0" result="hardAlpha"/>
<feOffset dy="4"/>
<feGaussianBlur stdDeviation="5"/>
<feComposite in2="hardAlpha" operator="out"/>
<feColorMatrix type="matrix" values="0 0 0 0 0 0 0 0 0 0 0 0 0 0 0 0 0 0 0.1 0"/>
<feBlend mode="normal" in2="BackgroundImageFix" result="effect1_dropShadow_6_26391"/>
<feBlend mode="normal" in="SourceGraphic" in2="effect1_dropShadow_6_26391" result="shape"/>
</filter>
</defs>
</svg>
