<svg width="24" height="25" viewBox="0 0 24 25" fill="none" xmlns="http://www.w3.org/2000/svg">
<path d="M24 21.3361C24.0024 21.7508 23.9053 22.1613 23.7152 22.5403C23.5251 22.9193 23.2463 23.2581 22.8973 23.5343C22.5482 23.8106 22.1369 24.0179 21.6906 24.1426C21.2443 24.2673 20.7731 24.3065 20.3084 24.2576C18.6168 24.0358 17.3772 22.7312 17.4185 21.216V3.79672C17.3776 2.27999 18.6203 0.974645 20.3141 0.755203C20.7783 0.707031 21.2488 0.74677 21.6945 0.87179C22.1401 0.99681 22.5507 1.20426 22.8992 1.48043C23.2476 1.75659 23.5259 2.09517 23.7157 2.47378C23.9054 2.85238 24.0023 3.26238 24 3.67666V21.3361Z" fill="#F9AB00"/>
<path d="M3.29075 18.4494C5.10821 18.4494 6.5815 19.7552 6.5815 21.3659C6.5815 22.9767 5.10821 24.2825 3.29075 24.2825C1.4733 24.2825 0 22.9767 0 21.366C0 19.7552 1.4733 18.4494 3.29075 18.4494ZM11.9494 9.60964C10.1234 9.69838 8.70655 11.0559 8.74902 12.6763V20.5105C8.74902 22.6366 9.80456 23.9273 11.3511 24.2025C11.8305 24.2886 12.3256 24.2791 12.8004 24.1746C13.2752 24.0701 13.7178 23.8732 14.0961 23.5983C14.4744 23.3233 14.7789 22.9772 14.9875 22.585C15.1962 22.1929 15.3037 21.7644 15.3023 21.3308V12.5413C15.3031 12.1527 15.2166 11.7679 15.0478 11.4093C14.879 11.0507 14.6314 10.7255 14.3193 10.4526C14.0071 10.1797 13.6369 9.96461 13.23 9.8199C12.8231 9.67519 12.3878 9.60374 11.9494 9.60972V9.60964Z" fill="#E37400"/>
</svg>
