<svg width="22" height="24" viewBox="0 0 22 24" fill="none" xmlns="http://www.w3.org/2000/svg">
<g clip-path="url(#clip0_6_26580)">
<path d="M22.0002 20.952C22.0024 21.3738 21.9135 21.7913 21.7392 22.1767C21.5649 22.5622 21.3093 22.9068 20.9894 23.1877C20.6694 23.4687 20.2924 23.6796 19.8833 23.8064C19.4742 23.9332 19.0423 23.9731 18.6163 23.9233C17.0657 23.6977 15.9294 22.3709 15.9672 20.8299V3.11357C15.9298 1.57098 17.0689 0.243374 18.6215 0.0201904C19.0471 -0.028803 19.4784 0.0116129 19.8869 0.138765C20.2954 0.265917 20.6718 0.476907 20.9911 0.75778C21.3105 1.03865 21.5656 1.38301 21.7396 1.76807C21.9135 2.15313 22.0024 2.57012 22.0002 2.99146V20.952Z" fill="#F9AB00"/>
<path d="M3.01649 18.0164C4.68248 18.0164 6.03298 19.3445 6.03298 20.9826C6.03298 22.6209 4.68248 23.9489 3.01649 23.9489C1.35051 23.9489 0 22.6209 0 20.9827C0 19.3445 1.35051 18.0164 3.01649 18.0164ZM10.9535 9.0259C9.2797 9.11616 7.98093 10.4968 8.01986 12.1449V20.1126C8.01986 22.275 8.98743 23.5877 10.4051 23.8675C10.8446 23.9551 11.2984 23.9455 11.7336 23.8392C12.1688 23.7329 12.5745 23.5327 12.9213 23.2531C13.2681 22.9734 13.5472 22.6214 13.7385 22.2226C13.9297 21.8237 14.0283 21.388 14.027 20.947V12.0076C14.0277 11.6124 13.9484 11.221 13.7937 10.8563C13.639 10.4915 13.412 10.1607 13.1259 9.8832C12.8398 9.60566 12.5003 9.38692 12.1274 9.23975C11.7544 9.09257 11.3553 9.01991 10.9535 9.02599V9.0259Z" fill="#E37400"/>
</g>
<defs>
<clipPath id="clip0_6_26580">
<rect width="22" height="24" fill="white"/>
</clipPath>
</defs>
</svg>
